<?xml version="1.0" standalone="no"?>
<!DOCTYPE svg PUBLIC "-//W3C//DTD SVG 20010904//EN"
 "http://www.w3.org/TR/2001/REC-SVG-20010904/DTD/svg10.dtd">
<svg version="1.0" xmlns="http://www.w3.org/2000/svg"
 width="16.000000pt" height="16.000000pt" viewBox="0 0 16.000000 16.000000"
 preserveAspectRatio="xMidYMid meet">
<metadata>
Created by potrace 1.11, written by Peter Selinger 2001-2013
</metadata>
<g transform="translate(0.000000,16.000000) scale(0.006154,-0.006154)"
fill="#000000" stroke="none">
<path d="M850 1300 l0 -320 85 0 85 0 0 178 c0 97 -5 194 -11 215 -16 59 -5
65 23 14 15 -26 73 -101 130 -167 137 -159 133 -159 258 -9 51 62 108 138 128
171 19 32 36 57 37 56 2 -2 -1 -25 -5 -53 -5 -27 -9 -130 -9 -227 l-1 -178 90
0 90 0 0 320 0 320 -82 0 -83 0 -114 -142 c-63 -78 -124 -159 -135 -180 -12
-21 -24 -38 -28 -38 -3 0 -15 16 -27 35 -11 20 -76 101 -143 180 l-123 145
-82 0 -83 0 0 -320z"/>
</g>
</svg>
