<?xml version="1.0" standalone="no"?>
<!DOCTYPE svg PUBLIC "-//W3C//DTD SVG 20010904//EN"
 "http://www.w3.org/TR/2001/REC-SVG-20010904/DTD/svg10.dtd">
<svg version="1.0" xmlns="http://www.w3.org/2000/svg"
 width="260.000000pt" height="260.000000pt" viewBox="0 0 260.000000 260.000000"
 preserveAspectRatio="xMidYMid meet">
<metadata>
Created by potrace 1.11, written by Peter Selinger 2001-2013
</metadata>
<g transform="translate(0.000000,260.000000) scale(0.100000,-0.100000)"
fill="#000000" stroke="none">
<path d="M0 1300 l0 -1300 1300 0 1300 0 0 1300 0 1300 -1300 0 -1300 0 0
-1300z m1089 239 c85 -100 170 -206 189 -235 19 -30 38 -54 41 -54 4 0 17 21
29 46 12 25 91 130 175 234 l152 190 108 0 107 0 0 -415 0 -415 -120 0 -120 0
0 208 c0 138 5 235 15 291 8 47 12 87 8 90 -3 3 -7 2 -10 -4 -17 -47 -89 -148
-197 -279 -173 -210 -155 -210 -336 0 -74 86 -146 175 -159 198 -39 68 -52 88
-56 84 -2 -2 3 -32 10 -68 10 -44 14 -137 15 -292 l0 -228 -110 0 -110 0 0
415 0 415 108 0 107 0 154 -181z"/>
</g>
</svg>
