<?xml version="1.0" standalone="no"?>
<!DOCTYPE svg PUBLIC "-//W3C//DTD SVG 20010904//EN"
 "http://www.w3.org/TR/2001/REC-SVG-20010904/DTD/svg10.dtd">
<svg version="1.0" xmlns="http://www.w3.org/2000/svg"
 width="762.000000pt" height="762.000000pt" viewBox="0 0 762.000000 762.000000"
 preserveAspectRatio="xMidYMid meet">
<metadata>
Created by potrace 1.11, written by Peter Selinger 2001-2013
</metadata>
<g transform="translate(0.000000,762.000000) scale(0.100000,-0.100000)"
fill="#000000" stroke="none">
<path d="M0 3810 l0 -3810 3810 0 3810 0 0 3810 0 3810 -3810 0 -3810 0 0
-3810z m3398 722 c184 -408 339 -739 343 -735 4 5 154 339 333 743 l326 735
332 0 c300 0 338 -2 387 -19 113 -39 166 -121 159 -244 -3 -55 -9 -78 -31
-111 -35 -53 -104 -97 -173 -111 l-54 -11 0 -975 0 -974 43 0 c152 0 261 -103
261 -245 0 -114 -64 -198 -173 -229 -85 -24 -876 -24 -962 0 -113 32 -172 110
-173 229 -1 85 26 142 91 191 56 42 116 54 278 54 l135 0 0 738 c0 405 -4 730
-9 722 -4 -8 -131 -293 -282 -633 l-274 -617 -219 2 -219 3 -279 620 c-153
341 -283 624 -288 629 -7 7 -9 -244 -8 -724 l3 -735 155 -5 c89 -3 173 -11
197 -19 97 -32 156 -117 155 -224 0 -106 -41 -174 -131 -216 l-56 -26 -460 0
c-526 0 -524 0 -595 74 -91 93 -94 228 -8 326 44 49 99 75 185 84 l58 6 3 972
2 971 -50 11 c-139 30 -213 116 -213 247 1 127 82 213 223 237 14 3 166 4 339
3 l313 -1 336 -743z"/>
</g>
</svg>
